<mxfile host="app.diagrams.net" agent="Mozilla/5.0 (Windows NT 10.0; Win64; x64) AppleWebKit/537.36 (KHTML, like Gecko) Chrome/122.0.6261.95 Safari/537.36" version="26.2.15">
  <diagram name="第 1 页" id="TGxMs9vRGRz1EPnE9v4Z">
    <mxGraphModel dx="1701" dy="902" grid="1" gridSize="10" guides="1" tooltips="1" connect="1" arrows="1" fold="1" page="1" pageScale="1" pageWidth="827" pageHeight="1169" math="0" shadow="0">
      <root>
        <mxCell id="0" />
        <mxCell id="1" parent="0" />
        <mxCell id="fY5POwXgki4u4mD3htKH-1" value="战斗" style="text;html=1;align=center;verticalAlign=middle;resizable=0;points=[];autosize=1;strokeColor=none;fillColor=none;fontStyle=1" vertex="1" parent="1">
          <mxGeometry x="140" y="18" width="50" height="30" as="geometry" />
        </mxCell>
        <mxCell id="fY5POwXgki4u4mD3htKH-3" value="基础原则：在同一地点" style="rounded=0;whiteSpace=wrap;html=1;" vertex="1" parent="1">
          <mxGeometry x="150" y="170" width="190" height="40" as="geometry" />
        </mxCell>
        <mxCell id="fY5POwXgki4u4mD3htKH-4" value="选择目标" style="rounded=0;whiteSpace=wrap;html=1;" vertex="1" parent="1">
          <mxGeometry x="630" y="290" width="80" height="40" as="geometry" />
        </mxCell>
        <mxCell id="fY5POwXgki4u4mD3htKH-5" value="立像本人" style="rounded=1;whiteSpace=wrap;html=1;" vertex="1" parent="1">
          <mxGeometry x="360" y="135" width="66" height="30" as="geometry" />
        </mxCell>
        <mxCell id="fY5POwXgki4u4mD3htKH-6" value="圣物" style="rounded=1;whiteSpace=wrap;html=1;" vertex="1" parent="1">
          <mxGeometry x="440" y="135" width="66" height="30" as="geometry" />
        </mxCell>
        <mxCell id="fY5POwXgki4u4mD3htKH-7" value="旗帜" style="rounded=1;whiteSpace=wrap;html=1;" vertex="1" parent="1">
          <mxGeometry x="360" y="175" width="66" height="30" as="geometry" />
        </mxCell>
        <mxCell id="fY5POwXgki4u4mD3htKH-8" value="旗帜" style="rounded=1;whiteSpace=wrap;html=1;" vertex="1" parent="1">
          <mxGeometry x="440" y="175" width="66" height="30" as="geometry" />
        </mxCell>
        <mxCell id="fY5POwXgki4u4mD3htKH-9" value="地点(当前)" style="rounded=1;whiteSpace=wrap;html=1;" vertex="1" parent="1">
          <mxGeometry x="360" y="215" width="66" height="30" as="geometry" />
        </mxCell>
        <mxCell id="fY5POwXgki4u4mD3htKH-12" value="一人，原则：接触&lt;div&gt;你在他的地上 or 立像同一地上&lt;/div&gt;" style="rounded=0;whiteSpace=wrap;html=1;" vertex="1" parent="1">
          <mxGeometry x="150" y="80" width="190" height="40" as="geometry" />
        </mxCell>
        <mxCell id="fY5POwXgki4u4mD3htKH-16" style="edgeStyle=orthogonalEdgeStyle;rounded=0;orthogonalLoop=1;jettySize=auto;html=1;exitX=1;exitY=0.5;exitDx=0;exitDy=0;" edge="1" parent="1" source="fY5POwXgki4u4mD3htKH-13" target="fY5POwXgki4u4mD3htKH-12">
          <mxGeometry relative="1" as="geometry" />
        </mxCell>
        <mxCell id="fY5POwXgki4u4mD3htKH-13" value="宣战玩家" style="shape=hexagon;perimeter=hexagonPerimeter2;whiteSpace=wrap;html=1;fixedSize=1;size=10;" vertex="1" parent="1">
          <mxGeometry x="40" y="80" width="80" height="40" as="geometry" />
        </mxCell>
        <mxCell id="fY5POwXgki4u4mD3htKH-19" style="edgeStyle=orthogonalEdgeStyle;rounded=0;orthogonalLoop=1;jettySize=auto;html=1;exitX=1;exitY=0.5;exitDx=0;exitDy=0;" edge="1" parent="1" source="fY5POwXgki4u4mD3htKH-17" target="fY5POwXgki4u4mD3htKH-3">
          <mxGeometry relative="1" as="geometry" />
        </mxCell>
        <mxCell id="fY5POwXgki4u4mD3htKH-17" value="宣战目标" style="shape=hexagon;perimeter=hexagonPerimeter2;whiteSpace=wrap;html=1;fixedSize=1;size=10;" vertex="1" parent="1">
          <mxGeometry x="40" y="170" width="80" height="40" as="geometry" />
        </mxCell>
        <mxCell id="fY5POwXgki4u4mD3htKH-18" value="特殊：任何远程地" style="rounded=1;whiteSpace=wrap;html=1;" vertex="1" parent="1">
          <mxGeometry x="440" y="215" width="100" height="30" as="geometry" />
        </mxCell>
        <mxCell id="fY5POwXgki4u4mD3htKH-20" value="防御力" style="shape=hexagon;perimeter=hexagonPerimeter2;whiteSpace=wrap;html=1;fixedSize=1;size=10;" vertex="1" parent="1">
          <mxGeometry x="150" y="370" width="80" height="40" as="geometry" />
        </mxCell>
        <mxCell id="fY5POwXgki4u4mD3htKH-21" value="攻击力" style="shape=hexagon;perimeter=hexagonPerimeter2;whiteSpace=wrap;html=1;fixedSize=1;size=10;" vertex="1" parent="1">
          <mxGeometry x="150" y="310" width="80" height="40" as="geometry" />
        </mxCell>
      </root>
    </mxGraphModel>
  </diagram>
</mxfile>
